<svg width="333" height="158" fill="none" xmlns="http://www.w3.org/2000/svg"><rect width="333" height="158" rx="8" fill="#EB7565"></rect><circle cx="298.913" cy="40" r="14" stroke="#FFF7F0" stroke-width="4"></circle><path fill="#755CDE" d="M250.913 24h32v32h-32z"></path><path fill="#030303" d="M282.913 56h4v4h-4zM296.913 56h4v4h-4zM310.913 56h4v4h-4zM282.913 70h4v4h-4zM296.913 70h4v4h-4zM310.913 70h4v4h-4zM282.913 84h4v4h-4zM296.913 84h4v4h-4zM310.913 84h4v4h-4z"></path><path fill-rule="evenodd" clip-rule="evenodd" d="m250.913 56 32 32V56h-32Z" fill="#F39E9E"></path><path fill="#030303" d="M218.913 56h4v4h-4zM232.913 56h4v4h-4zM246.913 56h4v4h-4zM218.913 80h4v4h-4zM232.913 80h4v4h-4zM246.913 80h4v4h-4zM218.913 84h4v4h-4zM232.913 84h4v4h-4zM246.913 84h4v4h-4zM218.913 24h4v4h-4zM232.913 24h4v4h-4zM246.913 24h4v4h-4zM218.913 28h4v4h-4zM232.913 28h4v4h-4zM246.913 28h4v4h-4zM218.913 52h4v4h-4zM232.913 52h4v4h-4zM246.913 52h4v4h-4z"></path><path fill-rule="evenodd" clip-rule="evenodd" d="m186.913 56 32 32V56h-32Z" fill="#61C4B7"></path><path fill-rule="evenodd" clip-rule="evenodd" d="m218.913 24-32 32V24h32Z" fill="#FFF7F0"></path><path d="M26.078 129h3.264v-17.88h-3.264V129Zm6.439 0h3.144v-18.168h-3.144V129Zm6.047 0h3.144v-18.168h-3.144V129Zm10.703.288c.816 0 1.535-.152 2.16-.456a3.629 3.629 0 0 0 1.511-1.392V129h2.976v-13.056H52.77v7.656c0 .864-.248 1.552-.744 2.064-.495.496-1.128.744-1.896.744-.784 0-1.424-.248-1.92-.744-.48-.496-.72-1.16-.72-1.992v-7.728h-3.144v7.992c0 1.6.433 2.896 1.297 3.888.88.976 2.087 1.464 3.623 1.464Zm14.538 0c.992 0 1.856-.168 2.592-.504.736-.336 1.312-.8 1.728-1.392.416-.608.624-1.304.624-2.088 0-.912-.288-1.696-.864-2.352-.576-.656-1.408-1.136-2.496-1.44l-2.088-.624c-.448-.128-.816-.296-1.104-.504a1.007 1.007 0 0 1-.432-.864c0-.384.152-.696.456-.936.304-.24.72-.36 1.248-.36a3.13 3.13 0 0 1 1.776.528c.544.352.92.824 1.128 1.416l2.4-1.128a4.879 4.879 0 0 0-2.016-2.472c-.944-.608-2.032-.912-3.264-.912-.944 0-1.784.168-2.52.504-.72.336-1.288.808-1.704 1.416-.4.592-.6 1.288-.6 2.088 0 .896.28 1.672.84 2.328.576.656 1.416 1.144 2.52 1.464l2.136.6c.416.112.768.28 1.056.504a.99.99 0 0 1 .456.864c0 .432-.176.776-.528 1.032-.336.24-.784.36-1.344.36-.736 0-1.4-.208-1.992-.624-.592-.416-1.064-.992-1.416-1.728l-2.352 1.128c.384 1.12 1.088 2.016 2.112 2.688 1.04.672 2.256 1.008 3.648 1.008Zm13.312-.144c.528 0 1.048-.04 1.56-.12v-2.712a5.415 5.415 0 0 1-.84.072c-.768 0-1.328-.176-1.68-.528-.352-.352-.528-.856-.528-1.512v-5.592h3v-2.808h-3v-2.976h-3.144v1.008c0 .64-.176 1.128-.528 1.464-.352.336-.848.504-1.488.504h-.24v2.808h2.256v5.76c0 1.456.4 2.592 1.2 3.408.816.816 1.96 1.224 3.432 1.224ZM81.08 129h3.144v-7.272c0-.992.272-1.76.816-2.304.56-.56 1.28-.84 2.16-.84h1.128V115.8h-.768c-.8 0-1.504.144-2.112.432-.608.288-1.08.808-1.416 1.56v-1.848H81.08V129Zm12.937.288c1.696 0 3.056-.56 4.08-1.68V129h2.976v-8.688c0-.912-.232-1.72-.696-2.424-.464-.704-1.104-1.248-1.92-1.632-.8-.4-1.736-.6-2.808-.6-1.312 0-2.48.312-3.504.936-1.024.624-1.728 1.448-2.112 2.472l2.568 1.248a3.083 3.083 0 0 1 1.128-1.416c.512-.368 1.112-.552 1.8-.552.72 0 1.296.192 1.728.576.448.368.672.832.672 1.392v.432l-3.888.624c-1.536.256-2.672.744-3.408 1.464-.736.72-1.104 1.624-1.104 2.712 0 1.152.408 2.064 1.224 2.736.816.672 1.904 1.008 3.264 1.008Zm-1.224-3.864c0-.912.616-1.488 1.848-1.728l3.288-.552v.528c0 .896-.312 1.656-.936 2.28-.608.624-1.408.936-2.4.936-.528 0-.96-.128-1.296-.384-.336-.272-.504-.632-.504-1.08Zm16.903 3.72c.528 0 1.048-.04 1.56-.12v-2.712a5.415 5.415 0 0 1-.84.072c-.768 0-1.328-.176-1.68-.528-.352-.352-.528-.856-.528-1.512v-5.592h3v-2.808h-3v-2.976h-3.144v1.008c0 .64-.176 1.128-.528 1.464-.352.336-.848.504-1.488.504h-.24v2.808h2.256v5.76c0 1.456.4 2.592 1.2 3.408.816.816 1.96 1.224 3.432 1.224Zm3.962-14.664h3.144v-3.36h-3.144v3.36Zm0 14.52h3.144v-13.056h-3.144V129Zm12.431.288c1.264 0 2.416-.288 3.456-.864A6.84 6.84 0 0 0 132.04 126c.624-1.04.936-2.216.936-3.528 0-1.312-.312-2.48-.936-3.504a6.655 6.655 0 0 0-2.472-2.424c-1.04-.592-2.2-.888-3.48-.888-1.296 0-2.464.296-3.504.888a6.84 6.84 0 0 0-2.496 2.424c-.608 1.024-.912 2.192-.912 3.504 0 1.312.304 2.48.912 3.504a6.84 6.84 0 0 0 2.496 2.424c1.056.592 2.224.888 3.504.888Zm0-2.88c-.704 0-1.336-.168-1.896-.504a3.626 3.626 0 0 1-1.296-1.392c-.304-.608-.456-1.288-.456-2.04s.152-1.424.456-2.016a3.626 3.626 0 0 1 1.296-1.392 3.488 3.488 0 0 1 1.896-.528c.704 0 1.32.176 1.848.528.544.336.968.8 1.272 1.392.32.592.48 1.264.48 2.016s-.16 1.432-.48 2.04a3.453 3.453 0 0 1-1.272 1.392c-.528.336-1.144.504-1.848.504ZM135.36 129h3.144v-7.656c0-.848.24-1.528.72-2.04.496-.512 1.136-.768 1.92-.768s1.416.256 1.896.768c.496.496.744 1.176.744 2.04V129h3.144v-8.4c0-.976-.208-1.832-.624-2.568a4.396 4.396 0 0 0-1.752-1.752c-.736-.416-1.584-.624-2.544-.624-.816 0-1.552.16-2.208.48-.64.32-1.136.792-1.488 1.416v-1.608h-2.952V129Zm19.195.288c.992 0 1.856-.168 2.592-.504.736-.336 1.312-.8 1.728-1.392.416-.608.624-1.304.624-2.088 0-.912-.288-1.696-.864-2.352-.576-.656-1.408-1.136-2.496-1.44l-2.088-.624c-.448-.128-.816-.296-1.104-.504a1.007 1.007 0 0 1-.432-.864c0-.384.152-.696.456-.936.304-.24.72-.36 1.248-.36a3.13 3.13 0 0 1 1.776.528c.544.352.92.824 1.128 1.416l2.4-1.128a4.879 4.879 0 0 0-2.016-2.472c-.944-.608-2.032-.912-3.264-.912-.944 0-1.784.168-2.52.504-.72.336-1.288.808-1.704 1.416-.4.592-.6 1.288-.6 2.088 0 .896.28 1.672.84 2.328.576.656 1.416 1.144 2.52 1.464l2.136.6c.416.112.768.28 1.056.504a.99.99 0 0 1 .456.864c0 .432-.176.776-.528 1.032-.336.24-.784.36-1.344.36-.736 0-1.4-.208-1.992-.624-.592-.416-1.064-.992-1.416-1.728l-2.352 1.128c.384 1.12 1.088 2.016 2.112 2.688 1.04.672 2.256 1.008 3.648 1.008Z" fill="#fff"></path></svg>