<svg width="155" height="182" fill="none" xmlns="http://www.w3.org/2000/svg"><rect width="155" height="182" rx="8" fill="#F6A560"></rect><path d="M32.384 153.288c1.376 0 2.592-.288 3.648-.864a6.439 6.439 0 0 0 2.52-2.376c.608-1.008.912-2.152.912-3.432V135.12H36.2v11.328c0 .752-.168 1.424-.504 2.016a3.56 3.56 0 0 1-1.344 1.368c-.56.32-1.216.48-1.968.48-.736 0-1.392-.16-1.968-.48a3.74 3.74 0 0 1-1.368-1.368c-.32-.592-.48-1.264-.48-2.016V135.12h-3.264v11.496c0 1.28.304 2.424.912 3.432a6.483 6.483 0 0 0 2.496 2.376c1.072.576 2.296.864 3.672.864ZM42.722 153h3.264v-17.88h-3.264V153Zm5.335.96h3.456l7.968-19.8H56.05l-7.992 19.8Zm20.397-.672c1.376 0 2.592-.288 3.648-.864a6.439 6.439 0 0 0 2.52-2.376c.608-1.008.912-2.152.912-3.432V135.12H72.27v11.328c0 .752-.168 1.424-.504 2.016a3.56 3.56 0 0 1-1.344 1.368c-.56.32-1.216.48-1.968.48-.736 0-1.392-.16-1.968-.48a3.74 3.74 0 0 1-1.368-1.368c-.32-.592-.48-1.264-.48-2.016V135.12h-3.264v11.496c0 1.28.304 2.424.912 3.432a6.483 6.483 0 0 0 2.496 2.376c1.072.576 2.296.864 3.672.864ZM77.33 153h3.744l3.936-6.048L88.92 153h3.744l-5.832-9 5.784-8.88h-3.744l-3.864 5.952-3.888-5.952h-3.744l5.808 8.88-5.856 9Z" fill="#fff"></path><circle cx="117.913" cy="40" r="14" stroke="#030303" stroke-width="4"></circle><path fill="#EB7565" d="M69.913 24h32v32h-32z"></path><path fill="#030303" d="M69.913 56h4v4h-4zM83.913 56h4v4h-4zM97.913 56h4v4h-4zM69.913 70h4v4h-4zM83.913 70h4v4h-4zM97.913 70h4v4h-4zM69.913 84h4v4h-4zM83.913 84h4v4h-4zM97.913 84h4v4h-4z"></path><path fill-rule="evenodd" clip-rule="evenodd" d="m101.913 56 32 32V56h-32Z" fill="#FFF7F0"></path></svg>